<mxfile host="app.diagrams.net" modified="2022-05-29T09:37:44.500Z" agent="5.0 (Windows NT 10.0; Win64; x64) AppleWebKit/537.36 (KHTML, like Gecko) Chrome/100.0.4896.127 Safari/537.36 OPR/86.0.4363.64" etag="EP1D4JJpU-GW_YNLdK1l" version="18.0.6" type="github">
  <diagram id="C5RBs43oDa-KdzZeNtuy" name="Page-1">
    <mxGraphModel dx="1232" dy="722" grid="1" gridSize="10" guides="1" tooltips="1" connect="1" arrows="1" fold="1" page="1" pageScale="1" pageWidth="827" pageHeight="1169" math="0" shadow="0">
      <root>
        <mxCell id="WIyWlLk6GJQsqaUBKTNV-0" />
        <mxCell id="WIyWlLk6GJQsqaUBKTNV-1" parent="WIyWlLk6GJQsqaUBKTNV-0" />
        <mxCell id="WIyWlLk6GJQsqaUBKTNV-2" value="" style="rounded=0;html=1;jettySize=auto;orthogonalLoop=1;fontSize=11;endArrow=block;endFill=0;endSize=8;strokeWidth=1;shadow=0;labelBackgroundColor=none;edgeStyle=orthogonalEdgeStyle;exitX=0.465;exitY=1.055;exitDx=0;exitDy=0;exitPerimeter=0;" parent="WIyWlLk6GJQsqaUBKTNV-1" source="YoJhMBi_WblPXS7V44ve-0" edge="1">
          <mxGeometry relative="1" as="geometry">
            <mxPoint x="80.0344827586207" y="210.02758620689667" as="targetPoint" />
            <Array as="points" />
          </mxGeometry>
        </mxCell>
        <mxCell id="WIyWlLk6GJQsqaUBKTNV-3" value="Bắt đầu" style="rounded=1;whiteSpace=wrap;html=1;fontSize=12;glass=0;strokeWidth=1;shadow=0;" parent="WIyWlLk6GJQsqaUBKTNV-1" vertex="1">
          <mxGeometry x="20" y="20" width="120" height="40" as="geometry" />
        </mxCell>
        <mxCell id="YoJhMBi_WblPXS7V44ve-0" value="Nhập số lượng PRO&lt;br&gt;Nhập thời gian cho QT Time" style="shape=parallelogram;perimeter=parallelogramPerimeter;whiteSpace=wrap;html=1;fixedSize=1;" vertex="1" parent="WIyWlLk6GJQsqaUBKTNV-1">
          <mxGeometry x="10" y="90" width="150" height="70" as="geometry" />
        </mxCell>
        <mxCell id="YoJhMBi_WblPXS7V44ve-2" value="" style="endArrow=classic;html=1;rounded=0;exitX=0.583;exitY=1;exitDx=0;exitDy=0;exitPerimeter=0;" edge="1" parent="WIyWlLk6GJQsqaUBKTNV-1" source="WIyWlLk6GJQsqaUBKTNV-3">
          <mxGeometry width="50" height="50" relative="1" as="geometry">
            <mxPoint x="60" y="90" as="sourcePoint" />
            <mxPoint x="90" y="90" as="targetPoint" />
            <Array as="points">
              <mxPoint x="90" y="80" />
            </Array>
          </mxGeometry>
        </mxCell>
        <mxCell id="YoJhMBi_WblPXS7V44ve-3" value="i = 0" style="rounded=0;whiteSpace=wrap;html=1;" vertex="1" parent="WIyWlLk6GJQsqaUBKTNV-1">
          <mxGeometry x="25" y="210" width="120" height="60" as="geometry" />
        </mxCell>
        <mxCell id="YoJhMBi_WblPXS7V44ve-4" value="i != SL Pro" style="rhombus;whiteSpace=wrap;html=1;" vertex="1" parent="WIyWlLk6GJQsqaUBKTNV-1">
          <mxGeometry x="35" y="310" width="90" height="80" as="geometry" />
        </mxCell>
        <mxCell id="YoJhMBi_WblPXS7V44ve-12" value="" style="edgeStyle=orthogonalEdgeStyle;rounded=0;orthogonalLoop=1;jettySize=auto;html=1;" edge="1" parent="WIyWlLk6GJQsqaUBKTNV-1" source="YoJhMBi_WblPXS7V44ve-6" target="YoJhMBi_WblPXS7V44ve-7">
          <mxGeometry relative="1" as="geometry" />
        </mxCell>
        <mxCell id="YoJhMBi_WblPXS7V44ve-6" value="Nhập thông tin cho&lt;br&gt;Pro[i] gồm&lt;br&gt;Burt Time - Arrival tme" style="shape=parallelogram;perimeter=parallelogramPerimeter;whiteSpace=wrap;html=1;fixedSize=1;" vertex="1" parent="WIyWlLk6GJQsqaUBKTNV-1">
          <mxGeometry x="35" y="420" width="150" height="60" as="geometry" />
        </mxCell>
        <mxCell id="YoJhMBi_WblPXS7V44ve-7" value="i++" style="rounded=0;whiteSpace=wrap;html=1;" vertex="1" parent="WIyWlLk6GJQsqaUBKTNV-1">
          <mxGeometry x="50" y="520" width="120" height="60" as="geometry" />
        </mxCell>
        <mxCell id="YoJhMBi_WblPXS7V44ve-8" value="" style="endArrow=classic;html=1;rounded=0;" edge="1" parent="WIyWlLk6GJQsqaUBKTNV-1" source="YoJhMBi_WblPXS7V44ve-4">
          <mxGeometry width="50" height="50" relative="1" as="geometry">
            <mxPoint x="140" y="340" as="sourcePoint" />
            <mxPoint x="140" y="420" as="targetPoint" />
            <Array as="points">
              <mxPoint x="140" y="370" />
            </Array>
          </mxGeometry>
        </mxCell>
        <mxCell id="YoJhMBi_WblPXS7V44ve-9" value="" style="endArrow=classic;html=1;rounded=0;" edge="1" parent="WIyWlLk6GJQsqaUBKTNV-1">
          <mxGeometry width="50" height="50" relative="1" as="geometry">
            <mxPoint x="110" y="480" as="sourcePoint" />
            <mxPoint x="109.66000000000003" y="520" as="targetPoint" />
          </mxGeometry>
        </mxCell>
        <mxCell id="YoJhMBi_WblPXS7V44ve-10" value="" style="curved=1;endArrow=classic;html=1;rounded=0;exitX=0;exitY=1;exitDx=0;exitDy=0;entryX=0.152;entryY=0.695;entryDx=0;entryDy=0;entryPerimeter=0;" edge="1" parent="WIyWlLk6GJQsqaUBKTNV-1" source="YoJhMBi_WblPXS7V44ve-7" target="YoJhMBi_WblPXS7V44ve-4">
          <mxGeometry width="50" height="50" relative="1" as="geometry">
            <mxPoint y="575" as="sourcePoint" />
            <mxPoint x="50" y="525" as="targetPoint" />
            <Array as="points">
              <mxPoint x="50" y="575" />
              <mxPoint y="525" />
            </Array>
          </mxGeometry>
        </mxCell>
        <mxCell id="YoJhMBi_WblPXS7V44ve-11" value="đúng" style="text;html=1;strokeColor=none;fillColor=none;align=center;verticalAlign=middle;whiteSpace=wrap;rounded=0;" vertex="1" parent="WIyWlLk6GJQsqaUBKTNV-1">
          <mxGeometry x="140" y="380" width="60" height="30" as="geometry" />
        </mxCell>
        <mxCell id="YoJhMBi_WblPXS7V44ve-13" value="" style="endArrow=classic;html=1;rounded=0;" edge="1" parent="WIyWlLk6GJQsqaUBKTNV-1">
          <mxGeometry width="50" height="50" relative="1" as="geometry">
            <mxPoint x="80" y="270" as="sourcePoint" />
            <mxPoint x="79.66000000000008" y="310" as="targetPoint" />
          </mxGeometry>
        </mxCell>
        <mxCell id="YoJhMBi_WblPXS7V44ve-14" value="" style="endArrow=classic;html=1;rounded=0;" edge="1" parent="WIyWlLk6GJQsqaUBKTNV-1">
          <mxGeometry width="50" height="50" relative="1" as="geometry">
            <mxPoint x="125" y="349.6599999999999" as="sourcePoint" />
            <mxPoint x="194.66" y="349.66" as="targetPoint" />
          </mxGeometry>
        </mxCell>
        <mxCell id="YoJhMBi_WblPXS7V44ve-15" value="sai" style="text;html=1;strokeColor=none;fillColor=none;align=center;verticalAlign=middle;whiteSpace=wrap;rounded=0;" vertex="1" parent="WIyWlLk6GJQsqaUBKTNV-1">
          <mxGeometry x="130" y="320" width="60" height="30" as="geometry" />
        </mxCell>
        <mxCell id="YoJhMBi_WblPXS7V44ve-16" value="Thực hiện chuỗi so sánh các tiến trình bằng giá trị arrival time" style="rounded=0;whiteSpace=wrap;html=1;" vertex="1" parent="WIyWlLk6GJQsqaUBKTNV-1">
          <mxGeometry x="200" y="320" width="140" height="60" as="geometry" />
        </mxCell>
        <mxCell id="YoJhMBi_WblPXS7V44ve-17" value="Sử dụng mảng các giá trị đã sắp xếp để thực hiện" style="rounded=0;whiteSpace=wrap;html=1;" vertex="1" parent="WIyWlLk6GJQsqaUBKTNV-1">
          <mxGeometry x="210" y="220" width="120" height="60" as="geometry" />
        </mxCell>
        <mxCell id="YoJhMBi_WblPXS7V44ve-18" value="" style="endArrow=classic;html=1;rounded=0;entryX=0.417;entryY=1;entryDx=0;entryDy=0;entryPerimeter=0;" edge="1" parent="WIyWlLk6GJQsqaUBKTNV-1" target="YoJhMBi_WblPXS7V44ve-17">
          <mxGeometry width="50" height="50" relative="1" as="geometry">
            <mxPoint x="260" y="320" as="sourcePoint" />
            <mxPoint x="290" y="300" as="targetPoint" />
          </mxGeometry>
        </mxCell>
        <mxCell id="YoJhMBi_WblPXS7V44ve-19" value="Đẩy vào hàng đợi để&amp;nbsp;&lt;br&gt;dễ quản lý" style="rounded=0;whiteSpace=wrap;html=1;" vertex="1" parent="WIyWlLk6GJQsqaUBKTNV-1">
          <mxGeometry x="210" y="110" width="120" height="60" as="geometry" />
        </mxCell>
        <mxCell id="YoJhMBi_WblPXS7V44ve-20" value="" style="endArrow=classic;html=1;rounded=0;" edge="1" parent="WIyWlLk6GJQsqaUBKTNV-1">
          <mxGeometry width="50" height="50" relative="1" as="geometry">
            <mxPoint x="269.65999999999997" y="220" as="sourcePoint" />
            <mxPoint x="269.65999999999997" y="170" as="targetPoint" />
            <Array as="points">
              <mxPoint x="269.65999999999997" y="200" />
            </Array>
          </mxGeometry>
        </mxCell>
        <mxCell id="YoJhMBi_WblPXS7V44ve-21" value="complete != n" style="rhombus;whiteSpace=wrap;html=1;" vertex="1" parent="WIyWlLk6GJQsqaUBKTNV-1">
          <mxGeometry x="480" y="100" width="100" height="80" as="geometry" />
        </mxCell>
        <mxCell id="YoJhMBi_WblPXS7V44ve-22" value="complete = 0" style="rounded=0;whiteSpace=wrap;html=1;" vertex="1" parent="WIyWlLk6GJQsqaUBKTNV-1">
          <mxGeometry x="470" y="10" width="120" height="60" as="geometry" />
        </mxCell>
        <mxCell id="YoJhMBi_WblPXS7V44ve-23" value="Trả về các giá trị cần thiết như TAT - WT - RT" style="rounded=0;whiteSpace=wrap;html=1;" vertex="1" parent="WIyWlLk6GJQsqaUBKTNV-1">
          <mxGeometry x="680" y="150" width="120" height="60" as="geometry" />
        </mxCell>
        <mxCell id="YoJhMBi_WblPXS7V44ve-24" value="" style="endArrow=classic;html=1;rounded=0;entryX=0;entryY=0.5;entryDx=0;entryDy=0;" edge="1" parent="WIyWlLk6GJQsqaUBKTNV-1" target="YoJhMBi_WblPXS7V44ve-23">
          <mxGeometry width="50" height="50" relative="1" as="geometry">
            <mxPoint x="610" y="180" as="sourcePoint" />
            <mxPoint x="620" y="160" as="targetPoint" />
          </mxGeometry>
        </mxCell>
        <mxCell id="YoJhMBi_WblPXS7V44ve-25" value="Kết thúc" style="rounded=1;whiteSpace=wrap;html=1;" vertex="1" parent="WIyWlLk6GJQsqaUBKTNV-1">
          <mxGeometry x="680" y="30" width="120" height="60" as="geometry" />
        </mxCell>
        <mxCell id="YoJhMBi_WblPXS7V44ve-26" value="" style="endArrow=classic;html=1;rounded=0;entryX=0.294;entryY=1.039;entryDx=0;entryDy=0;entryPerimeter=0;" edge="1" parent="WIyWlLk6GJQsqaUBKTNV-1" target="YoJhMBi_WblPXS7V44ve-25">
          <mxGeometry width="50" height="50" relative="1" as="geometry">
            <mxPoint x="715" y="150" as="sourcePoint" />
            <mxPoint x="765" y="100" as="targetPoint" />
          </mxGeometry>
        </mxCell>
        <mxCell id="YoJhMBi_WblPXS7V44ve-27" value="sai" style="text;html=1;strokeColor=none;fillColor=none;align=center;verticalAlign=middle;whiteSpace=wrap;rounded=0;" vertex="1" parent="WIyWlLk6GJQsqaUBKTNV-1">
          <mxGeometry x="610" y="150" width="60" height="30" as="geometry" />
        </mxCell>
        <mxCell id="YoJhMBi_WblPXS7V44ve-28" value="Mảng Brust_remaining với cá giá trị được set:&lt;br&gt;Burst_remaining[i] = Pro[i] Brust_time" style="rounded=0;whiteSpace=wrap;html=1;" vertex="1" parent="WIyWlLk6GJQsqaUBKTNV-1">
          <mxGeometry x="170" y="10" width="210" height="60" as="geometry" />
        </mxCell>
        <mxCell id="YoJhMBi_WblPXS7V44ve-29" value="" style="endArrow=classic;html=1;rounded=0;" edge="1" parent="WIyWlLk6GJQsqaUBKTNV-1">
          <mxGeometry width="50" height="50" relative="1" as="geometry">
            <mxPoint x="260" y="110" as="sourcePoint" />
            <mxPoint x="259.99999999999983" y="69.99999999999989" as="targetPoint" />
            <Array as="points">
              <mxPoint x="259.99999999999994" y="100" />
            </Array>
          </mxGeometry>
        </mxCell>
        <mxCell id="YoJhMBi_WblPXS7V44ve-31" value="" style="endArrow=classic;html=1;rounded=0;exitX=1;exitY=0.5;exitDx=0;exitDy=0;" edge="1" parent="WIyWlLk6GJQsqaUBKTNV-1" source="YoJhMBi_WblPXS7V44ve-28">
          <mxGeometry width="50" height="50" relative="1" as="geometry">
            <mxPoint x="413" y="59.999999999999886" as="sourcePoint" />
            <mxPoint x="460" y="40" as="targetPoint" />
            <Array as="points" />
          </mxGeometry>
        </mxCell>
        <mxCell id="YoJhMBi_WblPXS7V44ve-32" value="Xuất từng Pro trong hàng đợi ra" style="rounded=0;whiteSpace=wrap;html=1;" vertex="1" parent="WIyWlLk6GJQsqaUBKTNV-1">
          <mxGeometry x="470" y="200" width="120" height="60" as="geometry" />
        </mxCell>
        <mxCell id="YoJhMBi_WblPXS7V44ve-33" value="Burt_remaining[i] == P[i]. Burst_time" style="rhombus;whiteSpace=wrap;html=1;" vertex="1" parent="WIyWlLk6GJQsqaUBKTNV-1">
          <mxGeometry x="440" y="280" width="180" height="90" as="geometry" />
        </mxCell>
        <mxCell id="YoJhMBi_WblPXS7V44ve-34" value="&lt;p style=&quot;font-size: 8px;&quot; class=&quot;MsoNormal&quot;&gt;&lt;font style=&quot;font-size: 8px;&quot;&gt;p[idx].start_time = max(current_time, p[idx].arrival_tim&lt;/font&gt;&lt;/p&gt;&lt;p style=&quot;font-size: 8px;&quot; class=&quot;MsoNormal&quot;&gt;&lt;font style=&quot;font-size: 8px;&quot;&gt;&lt;span style=&quot;background-color: initial;&quot;&gt;total_idle_time +=&lt;/span&gt;&lt;span style=&quot;background-color: initial;&quot;&gt;p[idx].start_time - current_time;&lt;/span&gt;&lt;/font&gt;&lt;/p&gt;&lt;span style=&quot;background-color: initial; font-size: 8px;&quot;&gt;&lt;font style=&quot;font-size: 8px;&quot;&gt;current_time = p[idx].start_time;&lt;/font&gt;&lt;/span&gt;" style="rounded=0;whiteSpace=wrap;html=1;" vertex="1" parent="WIyWlLk6GJQsqaUBKTNV-1">
          <mxGeometry x="415" y="390" width="230" height="70" as="geometry" />
        </mxCell>
        <mxCell id="YoJhMBi_WblPXS7V44ve-35" value="&lt;span&gt;burst_remaining[idx]- tq &amp;gt; 0&lt;/span&gt;" style="rhombus;whiteSpace=wrap;html=1;" vertex="1" parent="WIyWlLk6GJQsqaUBKTNV-1">
          <mxGeometry x="430" y="480" width="200" height="80" as="geometry" />
        </mxCell>
        <mxCell id="YoJhMBi_WblPXS7V44ve-36" value="&lt;p class=&quot;MsoNormal&quot;&gt;burst_remaining[idx] -= tq;&lt;/p&gt;&lt;p class=&quot;MsoNormal&quot;&gt;&lt;span style=&quot;background-color: initial;&quot;&gt;current_time += tq;&lt;/span&gt;&lt;/p&gt;&lt;p class=&quot;MsoNormal&quot;&gt;&lt;/p&gt;" style="rounded=0;whiteSpace=wrap;html=1;" vertex="1" parent="WIyWlLk6GJQsqaUBKTNV-1">
          <mxGeometry x="660" y="560" width="160" height="60" as="geometry" />
        </mxCell>
        <mxCell id="YoJhMBi_WblPXS7V44ve-37" value="" style="rounded=0;whiteSpace=wrap;html=1;" vertex="1" parent="WIyWlLk6GJQsqaUBKTNV-1">
          <mxGeometry x="680" y="490" width="120" height="60" as="geometry" />
        </mxCell>
        <mxCell id="YoJhMBi_WblPXS7V44ve-38" value="" style="rhombus;whiteSpace=wrap;html=1;" vertex="1" parent="WIyWlLk6GJQsqaUBKTNV-1">
          <mxGeometry x="490" y="810" width="80" height="80" as="geometry" />
        </mxCell>
        <mxCell id="YoJhMBi_WblPXS7V44ve-39" value="" style="rounded=0;whiteSpace=wrap;html=1;" vertex="1" parent="WIyWlLk6GJQsqaUBKTNV-1">
          <mxGeometry x="470" y="900" width="120" height="60" as="geometry" />
        </mxCell>
        <mxCell id="YoJhMBi_WblPXS7V44ve-40" value="" style="rounded=0;whiteSpace=wrap;html=1;" vertex="1" parent="WIyWlLk6GJQsqaUBKTNV-1">
          <mxGeometry x="470" y="720" width="120" height="60" as="geometry" />
        </mxCell>
        <mxCell id="YoJhMBi_WblPXS7V44ve-41" value="" style="rhombus;whiteSpace=wrap;html=1;" vertex="1" parent="WIyWlLk6GJQsqaUBKTNV-1">
          <mxGeometry x="490" y="990" width="80" height="80" as="geometry" />
        </mxCell>
        <mxCell id="YoJhMBi_WblPXS7V44ve-42" value="" style="rounded=0;whiteSpace=wrap;html=1;" vertex="1" parent="WIyWlLk6GJQsqaUBKTNV-1">
          <mxGeometry x="470" y="1080" width="120" height="60" as="geometry" />
        </mxCell>
        <mxCell id="YoJhMBi_WblPXS7V44ve-43" value="" style="rhombus;whiteSpace=wrap;html=1;" vertex="1" parent="WIyWlLk6GJQsqaUBKTNV-1">
          <mxGeometry x="330" y="990" width="80" height="80" as="geometry" />
        </mxCell>
        <mxCell id="YoJhMBi_WblPXS7V44ve-44" value="" style="rounded=0;whiteSpace=wrap;html=1;" vertex="1" parent="WIyWlLk6GJQsqaUBKTNV-1">
          <mxGeometry x="320" y="890" width="120" height="60" as="geometry" />
        </mxCell>
        <mxCell id="YoJhMBi_WblPXS7V44ve-45" value="" style="rhombus;whiteSpace=wrap;html=1;" vertex="1" parent="WIyWlLk6GJQsqaUBKTNV-1">
          <mxGeometry x="334" y="790" width="80" height="80" as="geometry" />
        </mxCell>
        <mxCell id="YoJhMBi_WblPXS7V44ve-46" value="" style="rounded=0;whiteSpace=wrap;html=1;" vertex="1" parent="WIyWlLk6GJQsqaUBKTNV-1">
          <mxGeometry x="314" y="710" width="120" height="60" as="geometry" />
        </mxCell>
        <mxCell id="YoJhMBi_WblPXS7V44ve-53" value="" style="rounded=0;whiteSpace=wrap;html=1;fontSize=8;" vertex="1" parent="WIyWlLk6GJQsqaUBKTNV-1">
          <mxGeometry x="460" y="610" width="120" height="60" as="geometry" />
        </mxCell>
      </root>
    </mxGraphModel>
  </diagram>
</mxfile>
